<svg xmlns="http://www.w3.org/2000/svg" viewBox="0 0 64 64" width="64" height="64">
  <rect width="64" height="64" rx="14" fill="#00674F"/>
  <svg x="9" y="14" width="46" height="36" viewBox="12 178 385 266" fill="#ffffff">
    <path d="M117.29 435 c-9.39 -1.23 -18.09 -3.64 -26.35 -7.37 -9.19 -4.13 -15.24 -7.77 -31.61 -19.12 -7.47 -5.16 -13.27 -8.26 -19.57 -10.37 -4.18 -1.43 -5.36 -1.62 -12.14 -1.87 l-7.52 -0.29 1.47 -1.97 c0.79 -1.08 2.70 -3.05 4.18 -4.33 3.59 -3.10 11.90 -8.65 13.52 -9.05 0.69 -0.15 1.72 -0.59 2.31 -0.98 2.06 -1.33 10.81 -4.08 15.58 -4.87 8.65 -1.43 18.04 -0.25 24.92 3.24 3.05 1.52 4.08 3.05 2.85 4.23 -0.39 0.39 -2.51 1.13 -4.77 1.67 -4.18 1.03 -12.34 4.57 -12.34 5.41 0 0.29 2.56 2.41 5.65 4.72 15.34 11.40 30.48 18.78 44.78 21.83 6.29 1.33 21.68 1.92 28.36 1.03 5.60 -0.79 14.70 -3 19.91 -4.92 9.44 -3.49 20.70 -9.88 28.61 -16.27 2.51 -1.97 3.49 -2.46 4.67 -2.36 4.03 0.39 0.98 5.95 -9.05 16.27 -4.97 5.11 -11.60 10.81 -14.50 12.44 -11.95 6.78 -21.04 10.32 -31.22 12.29 -5.26 0.98 -7.47 1.18 -15.29 1.13 -5.01 -0.05 -10.62 -0.29 -12.49 -0.49z"/>
    <path d="M269.39 434.81 c-23.20 -3.20 -43.11 -14.65 -57.42 -33.13 -3.69 -4.82 -4.52 -6.54 -3.69 -7.87 0.98 -1.52 2.36 -1.13 6.19 1.92 12.58 9.93 26.74 16.66 42.13 20.01 4.67 0.98 7.47 1.28 15.98 1.47 9 0.25 11.11 0.15 16.22 -0.74 15.63 -2.70 31.17 -10.13 48.81 -23.30 2.46 -1.87 4.52 -3.59 4.52 -3.79 0 -0.20 -1.47 -1.13 -3.29 -2.11 -3.10 -1.62 -7.32 -3.15 -12.24 -4.33 -1.13 -0.29 -2.21 -0.84 -2.36 -1.28 -0.39 -1.03 1.77 -2.90 4.28 -3.83 10.91 -3.83 16.22 -4.47 24.73 -3 9.19 1.62 19.07 5.95 26.79 11.80 4.08 3.05 9.29 8.16 9.29 9.14 0 0.25 -1.72 0.44 -3.79 0.44 -6.24 0.05 -13.76 1.23 -17.84 2.85 -4.57 1.87 -10.96 5.31 -14.16 7.67 -1.38 0.98 -2.56 1.77 -2.70 1.77 -0.20 0 -3.44 2.26 -7.32 5.06 -9.64 6.88 -20.16 12.73 -29.25 16.27 -5.06 1.97 -14.40 4.42 -19.57 5.21 -4.72 0.64 -19.66 0.54 -25.32 -0.25z"/>
    <path d="M146.25 397.40 c-16.47 -2.36 -27.63 -5.90 -40.61 -12.98 -18.29 -9.98 -33.92 -26.89 -44.19 -47.73 -4.67 -9.54 -6.59 -14.80 -10.08 -27.82 -3.64 -13.57 -6.19 -21.29 -8.85 -27.04 -1.23 -2.61 -2.21 -4.97 -2.21 -5.31 0 -0.98 16.12 -1.87 28.27 -1.57 15.53 0.39 26.35 2.31 39.38 6.98 16.07 5.80 28.46 13.42 43.65 26.99 2.41 2.16 3.79 3.10 3.59 2.51 -0.84 -2.70 -1.43 -14.01 -1.18 -21.14 0.84 -21.38 6.98 -42.03 18.73 -62.63 6.98 -12.29 11.26 -18.39 20.84 -30.04 6.69 -8.06 10.32 -11.80 11.45 -11.80 1.47 0 13.76 14.55 21.58 25.56 7.42 10.42 16.42 26.89 20.60 37.61 3.49 9.09 6.88 23.40 7.96 33.62 0.54 5.46 0.34 20.11 -0.34 26.84 l-0.34 2.95 3.88 -3.64 c10.57 -9.93 22.81 -18.24 33.87 -23.01 11.11 -4.77 20.25 -7.52 30.97 -9.29 7.37 -1.23 13.22 -1.62 24.92 -1.67 9.59 0 20.84 0.64 21.48 1.28 0.10 0.10 -0.84 2.36 -2.16 4.97 -3.34 6.73 -4.82 11.06 -7.91 22.96 -5.80 22.32 -10.57 33.48 -20.55 48.18 -8.06 11.85 -20.70 24.24 -31.02 30.38 -12.24 7.28 -26.20 12.39 -39.33 14.40 -7.96 1.23 -22.66 0.84 -31.71 -0.88 -7.96 -1.52 -14.75 -3.44 -17.35 -4.92 -2.11 -1.18 -2.85 -2.95 -1.67 -4.13 0.69 -0.69 1.67 -0.69 9.29 -0.15 21.14 1.52 38.69 -1.67 55.94 -10.27 8.55 -4.28 13.76 -7.67 20.16 -13.17 12.09 -10.32 20.89 -22.12 27.28 -36.48 3.98 -8.95 7.37 -20.20 8.41 -28.02 l0.34 -2.65 -5.60 0.29 c-22.76 1.33 -44.05 8.75 -59.92 20.99 -2.31 1.77 -5.06 3.88 -6.14 4.67 -4.33 3.20 -14.80 14.01 -18.83 19.42 -2.36 3.10 -7.91 11.21 -12.44 17.94 -11.99 18.09 -15.19 21.73 -17.40 19.91 -1.47 -1.23 -0.84 -3.44 3.24 -10.47 11.45 -19.76 17.11 -36.72 18.63 -56.38 1.57 -19.47 -3.83 -43.16 -14.40 -62.92 -6.19 -11.65 -19.61 -30.48 -21.68 -30.48 -1.87 0 -14.11 16.96 -20.45 28.32 -10.52 18.98 -17.16 44.59 -15.98 62.14 1.28 20.20 6.59 37.02 17.99 57.32 2.70 4.77 5.06 9.34 5.21 10.13 0.29 1.62 -0.54 2.85 -1.97 2.85 -2.02 0 -9.05 -8.75 -16.57 -20.65 -18.63 -29.59 -36.62 -45.77 -61.69 -55.70 -8.41 -3.34 -20.01 -6.14 -29.84 -7.18 -10.86 -1.18 -11.45 -0.93 -10.37 5.11 1.77 10.27 4.97 19.81 10.03 29.74 5.41 10.67 11.06 18.43 19.42 26.64 5.70 5.60 8.65 7.96 14.85 12.14 16.86 11.31 33.58 16.37 56.38 17.11 7.72 0.25 10.03 0.15 13.42 -0.54 4.38 -0.93 5.70 -0.79 6.54 0.74 1.38 2.56 -0.93 4.42 -7.91 6.34 -11.36 3.15 -13.67 3.49 -25.32 3.69 -5.95 0.10 -11.45 0.05 -12.29 -0.05z"/>
    <path d="M202.44 380.64 c-1.67 -1.82 -3.39 -4.92 -5.55 -9.93 -10.47 -24.58 -13.32 -45.91 -7.82 -58.45 1.43 -3.20 5.51 -7.57 8.41 -9 1.62 -0.79 3.49 -1.13 6.83 -1.33 4.23 -0.20 4.77 -0.15 7.28 1.08 5.55 2.70 9.24 7.96 10.91 15.39 1.18 5.36 0.74 17.45 -0.98 25.17 -2.31 10.47 -6.29 22.02 -10.91 31.85 -3.10 6.54 -5.46 8.06 -8.16 5.21z"/>
    <path d="M201.30 290.58 c-10.32 -2.56 -14.31 -15.34 -7.18 -23.25 3 -3.34 6.19 -4.82 10.42 -4.82 3.98 0 6.83 0.93 9.59 3.20 4.62 3.79 6.24 11.11 3.74 16.76 -1.47 3.24 -5.60 7.32 -8.21 8.01 -2.21 0.59 -6.10 0.64 -8.36 0.10z"/>
    <path d="M135.68 284.43 c-4.18 -3.05 -8.65 -8.41 -11.01 -13.22 -5.01 -10.08 -5.51 -19.42 -1.38 -24.92 2.80 -3.74 5.11 -4.87 10.03 -4.97 4.33 -0.10 6.83 0.93 9.19 3.83 3.64 4.38 3.79 10.23 0.59 20.30 -2.51 7.77 -3.34 11.50 -3.79 16.62 -0.20 2.46 -0.54 4.03 -0.88 4.03 -0.29 0 -1.52 -0.74 -2.75 -1.67z"/>
    <path d="M270.47 285.51 c-0.34 -0.34 -0.59 -2.02 -0.59 -4.03 0 -4.47 -0.88 -8.60 -3.54 -16.42 -1.82 -5.51 -2.06 -6.78 -2.11 -10.67 0 -3.98 0.15 -4.67 1.47 -7.08 2.41 -4.33 5.51 -5.95 11.36 -5.95 3 0 3.74 0.20 5.75 1.47 2.46 1.57 4.97 4.97 5.75 7.87 0.74 2.56 0.59 9.05 -0.25 12.29 -2.06 8.01 -8.41 17.60 -14.31 21.63 -2.36 1.62 -2.70 1.72 -3.54 0.88z"/>
    <path d="M86.62 265.80 c-2.31 -0.74 -5.70 -3.88 -6.93 -6.49 -1.23 -2.65 -1.38 -7.62 -0.29 -10.23 0.84 -2.02 3.34 -5.01 4.82 -5.85 1.43 -0.74 6.19 -1.82 8.26 -1.87 0.93 0 2.85 0.54 4.23 1.23 4.28 2.16 6.54 6.05 6.59 11.31 0.05 4.97 -2.51 9.54 -6.49 11.55 -2.11 1.08 -7.32 1.28 -10.18 0.34z"/>
    <path d="M313.88 265.51 c-4.87 -2.21 -7.62 -6.39 -7.62 -11.60 0 -7.18 5.41 -12.54 12.73 -12.54 6.88 0 11.90 5.31 11.95 12.54 0 4.92 -2.61 9.59 -6.54 11.55 -2.51 1.28 -7.77 1.33 -10.52 0.05z"/>
    <path d="M138.23 230.60 c-3.20 -1.13 -5.26 -3 -6.78 -6.19 -2.16 -4.57 -1.23 -10.57 2.16 -14.16 2.02 -2.16 4.62 -3.24 8.41 -3.59 3.10 -0.29 3.69 -0.20 6.14 0.98 1.52 0.74 3.39 2.16 4.23 3.15 1.62 1.97 2.95 5.70 2.95 8.21 0 4.47 -2.90 9.34 -6.88 11.45 -2.56 1.38 -6.54 1.43 -10.23 0.15z"/>
    <path d="M262.61 230.60 c-9.88 -3.39 -11.36 -17.16 -2.41 -22.37 2.65 -1.57 8.11 -2.21 10.91 -1.28 2.46 0.79 6.05 4.13 7.18 6.64 1.33 2.90 1.23 7.72 -0.25 10.81 -2.95 6.19 -8.70 8.50 -15.44 6.19z"/>
  </svg>
</svg>
